<?xml version="1.0" standalone="no"?>
<!DOCTYPE svg PUBLIC "-//W3C//DTD SVG 20010904//EN"
 "http://www.w3.org/TR/2001/REC-SVG-20010904/DTD/svg10.dtd">
<svg version="1.0" xmlns="http://www.w3.org/2000/svg"
 width="200.000000pt" height="200.000000pt" viewBox="0 0 200.000000 200.000000"
 preserveAspectRatio="xMidYMid meet">
<metadata>
Created by potrace 1.16, written by Peter Selinger 2001-2019
</metadata>
<g transform="translate(0.000000,200.000000) scale(0.100000,-0.100000)"
fill="#000000" stroke="none">
<path d="M880 1814 c-54 -17 -126 -66 -122 -83 1 -7 -1 -10 -6 -7 -5 3 -22 -8
-37 -24 -16 -17 -25 -30 -20 -30 5 0 0 -7 -11 -15 -18 -14 -17 -16 8 -19 6 0
13 -8 15 -16 3 -9 1 -11 -4 -5 -19 23 -41 10 -88 -53 -27 -36 -48 -71 -47 -76
2 -6 0 -8 -4 -4 -4 4 -14 0 -23 -10 -9 -10 -37 -35 -63 -56 -26 -21 -45 -42
-42 -47 3 -5 -2 -6 -10 -3 -9 4 -18 -1 -22 -10 -3 -9 -12 -16 -20 -16 -8 0
-23 -9 -33 -19 -11 -11 -21 -18 -23 -16 -2 2 -21 -14 -42 -35 -24 -25 -36 -45
-32 -55 3 -9 2 -14 -3 -11 -17 11 -58 -61 -67 -117 -14 -87 -15 -117 -4 -164
7 -29 16 -51 19 -49 3 2 7 -7 7 -21 1 -13 9 -32 18 -42 9 -10 16 -22 16 -27 0
-16 94 -100 144 -128 68 -40 215 -188 271 -275 61 -94 106 -139 175 -173 112
-56 234 -57 342 -2 70 36 113 78 179 175 73 109 166 202 276 276 94 63 131
103 171 183 24 50 27 65 26 160 0 84 -4 114 -21 150 -37 80 -80 127 -175 191
-111 76 -215 178 -283 279 -58 88 -111 143 -127 134 -6 -4 -8 -3 -4 4 8 13
-52 44 -67 35 -5 -3 -7 -1 -4 5 5 6 -18 15 -62 22 -67 12 -107 11 -145 -5 -14
-6 -17 -5 -12 3 4 7 6 12 4 11 -2 0 -23 -7 -48 -15z m295 -284 c33 -12 68 -23
77 -23 9 -1 15 -3 13 -5 -2 -3 15 -18 39 -33 106 -71 198 -200 231 -326 20
-75 19 -209 -1 -287 -67 -258 -334 -442 -591 -406 -124 17 -261 81 -338 158
-89 88 -151 232 -160 371 -3 46 -8 88 -12 93 -3 6 -1 8 4 5 11 -7 27 49 17 64
-3 5 -1 9 4 9 5 0 12 14 16 31 3 17 16 52 29 77 13 26 23 53 21 60 -1 7 0 8 3
2 3 -8 9 -7 19 1 17 14 19 33 2 23 -7 -4 -8 -3 -4 5 4 6 11 9 15 7 4 -3 24 13
45 35 37 38 156 125 156 114 0 -3 10 0 23 7 96 52 277 60 392 18z m-548 5 c0
-8 -4 -12 -9 -9 -5 3 -6 10 -3 15 9 13 12 11 12 -6z m73 -60 c0 -2 -6 -5 -13
-8 -8 -3 -14 1 -14 8 0 7 6 11 14 8 7 -3 13 -6 13 -8z m-103 -53 c7 6 15 9 18
7 2 -3 -4 -10 -15 -16 -15 -10 -21 -9 -31 5 -11 14 -11 15 1 5 10 -9 17 -10
27 -1z m-287 -166 c0 -2 -8 -10 -17 -17 -16 -13 -17 -12 -4 4 13 16 21 21 21
13z m-76 -92 c3 -8 2 -12 -4 -9 -6 3 -10 10 -10 16 0 14 7 11 14 -7z"/>
</g>
</svg>
